<?xml version="1.0" encoding="utf-8"?>
<!-- Generator: Adobe Illustrator 27.3.1, SVG Export Plug-In . SVG Version: 6.00 Build 0)  -->
<svg version="1.1" id="Layer_1" xmlns="http://www.w3.org/2000/svg" xmlns:xlink="http://www.w3.org/1999/xlink" x="0px" y="0px"
	 viewBox="0 0 1000.3 500" style="enable-background:new 0 0 1000.3 500;" xml:space="preserve">
<style type="text/css">
	.st0{fill:none;}
</style>
<image style="overflow:visible;enable-background:new    ;" width="2084" height="1043" id="background" xlink:href="unitygrid.jpg"  transform="matrix(0.48 0 0 0.48 0 0)">
</image>
<polygon id="venue1" class="st0" points="3,234.5 17.9,198.9 34.5,188.6 52.5,191.7 56.7,196.3 69,162.3 84,137.5 103.6,121.5 
	126.3,109.6 154.7,125.6 175.9,149.9 189.8,176.7 199.6,206.1 205.8,229.4 210.4,243.8 206.8,272.2 214.6,285.1 214.6,302.1 
	203.7,334.1 194.4,351.7 205.3,366.6 132.5,366.6 159.4,391.4 155.7,399.7 119.6,399.7 86.1,399.7 62.8,399.7 25.2,399.7 0,397.6 
	"/>
<polygon id="venue2" class="st0" points="358.6,353.7 376.6,322.8 389.5,314.5 384.4,280.5 407.6,272.2 422.1,220.6 438.6,126.7 
	449.4,38.4 457.7,16.7 468,35.8 474.2,103.4 491.7,203 508.3,261.9 517,281.5 517,214.9 529.4,194.3 540.8,197.4 540.8,169.5 
	552.1,167.9 556.8,149.9 566.1,156.1 566.1,193.7 577.4,211.8 577.4,238.6 601.2,254.6 594.5,302.1 575.9,335.7 587.2,353.7 
	601.2,363.5 358.6,363.5 "/>
<polygon id="venue3" class="st0" points="998.1,83.8 952.7,31.2 914.5,16.7 877.3,43.5 833.9,102.4 811.7,161.2 796.8,241.2 
	803,303.2 833.9,353.2 871.6,385.2 954.7,385.2 1000.3,387.8 "/>
<polygon id="venue4" class="st0" points="625,291 615,305 608,318 625,338 637,354 622.5,358 673,363.5 751,363.5 793,363.5 
	769,352 772,347 793,340 806,321 796.8,291 784,269 757,261 730,272 707,281 672,283 "/>
</svg>